<svg width="64" height="64" viewBox="0 0 64 64" fill="none" xmlns="http://www.w3.org/2000/svg">
<g id="heroicons-solid/check-circle">
<path id="Subtract" fill-rule="evenodd" clip-rule="evenodd" d="M6 32C6 17.6406 17.6406 6 32 6C46.3594 6 58 17.6406 58 32C58 46.3594 46.3594 58 32 58C17.6406 58 6 46.3594 6 32ZM41.6275 27.1625C42.2695 26.2637 42.0613 25.0146 41.1625 24.3725C40.2636 23.7305 39.0145 23.9387 38.3725 24.8375L29.7448 36.9164L25.4142 32.5858C24.6332 31.8047 23.3668 31.8047 22.5858 32.5858C21.8047 33.3668 21.8047 34.6332 22.5858 35.4142L28.5858 41.4142C29.0015 41.8299 29.5791 42.0417 30.165 41.9932C30.7509 41.9447 31.2858 41.6409 31.6275 41.1625L41.6275 27.1625Z" fill="#735EFA"/>
</g>
</svg>
